<svg width="24" height="24" viewBox="0 0 24 24" fill="none" xmlns="http://www.w3.org/2000/svg">
<path d="M5.41436 1.99991L2.00015 5.41412L0.585938 3.99991L4.00015 0.585693L5.41436 1.99991Z" fill="black"/>
<path d="M20.0002 0.585693L23.4144 3.99991L22.0002 5.41412L18.5859 1.99991L20.0002 0.585693Z" fill="black"/>
<path d="M13.0002 6.99991V11.5857L16.4144 14.9999L15.0002 16.4141L11.0002 12.4141V6.99991H13.0002Z" fill="black"/>
<path fill-rule="evenodd" clip-rule="evenodd" d="M2.00015 11.9999C2.00015 6.47706 6.4773 1.99991 12.0002 1.99991C17.523 1.99991 22.0002 6.47706 22.0002 11.9999C22.0002 17.5228 17.523 21.9999 12.0002 21.9999C6.4773 21.9999 2.00015 17.5228 2.00015 11.9999ZM12.0002 3.99991C7.58187 3.99991 4.00015 7.58163 4.00015 11.9999C4.00015 16.4182 7.58187 19.9999 12.0002 19.9999C16.4184 19.9999 20.0002 16.4182 20.0002 11.9999C20.0002 7.58163 16.4184 3.99991 12.0002 3.99991Z" fill="black"/>
</svg>
